 http://www.moviemeter.nl/film/60374
 
http://www.imdb.com/title/tt1581622/

User Rating:6.8/10 - 10 votes

Nederland
Avontuur / Mystery
84 minuten

Geregisseerd door Dennis Bots
Met Loek Beernink, Irris Hesseling en Kevin Wekker

Omdat Appie jarig is, gaan de Anubis bewoners naar een oud landhuis. Tijdens Appie's horrorfeestje slaat de klok twaalf en begint het huis te spoken; de piano speelt uit zichzelf en achter een dichte deur zit een heus spookhuis. Maar als één van hen daarna zoek is, lijkt het even niet meer voor de lol. Maken ze elkaar bang? Of spookt het echt in huis? Nienke denkt dat het te maken heeft met het dagboek dat ze in het huis heeft gevonden. Het is van het eenzame jongetje Arghus dat honderd jaar geleden in het huis woonde. Hij wilde bij een groepje vrienden horen, maar werd door hen verstoten, waarna hij wraak zwoer op hun vriendschap. In en om het huis begint het steeds meer te spoken en geen plek is veilig. De Club van de Oude Wilg gaat op onderzoek uit en komt erachter dat ze het slachtoffer zijn van een duister ritueel. Maar dan raakt Nienke ook de rest van de Club kwijt. Lukt het haar om in haar eentje de anderen te redden? Of gaan ze voor altijd ten onder aan de wraak van Arghus?

Info:

Hoesjes bijgevoegd.

General
Complete name                    : Anubis-En de Wraak van Arghus-AC3-5,1-DVDRip-2009.avi
Format                           : AVI
Format/Info                      : Audio Video Interleave
File size                        : 1.36 GiB
Duration                         : 1h 26mn
Overall bit rate                 : 2 250 Kbps
Writing application              : VirtualDubMod 1.5.4.1 (build 2178/release)
Writing library                  : VirtualDubMod build 2178/release

Video
ID                               : 0
Format                           : MPEG-4 Visual
Format profile                   : Simple@L3
Format settings, BVOP            : No
Format settings, QPel            : No
Format settings, GMC             : No warppoints
Format settings, Matrix          : Default (H.263)
Codec ID                         : XVID
Codec ID/Hint                    : XviD
Duration                         : 1h 26mn
Bit rate                         : 1 792 Kbps
Width                            : 640 pixels
Height                           : 352 pixels
Display aspect ratio             : 16:9
Frame rate                       : 25.000 fps
Resolution                       : 24 bits
Colorimetry                      : 4:2:0
Scan type                        : Progressive
Bits/(Pixel*Frame)               : 0.318
Stream size                      : 1.08 GiB (80%)
Writing library                  : XviD 1.1.2 (UTC 2006-11-01)

Audio
ID                               : 1
Format                           : AC-3
Format/Info                      : Audio Coding 3
Codec ID                         : 2000
Duration                         : 1h 26mn
Bit rate mode                    : Constant
Bit rate                         : 448 Kbps
Channel(s)                       : 6 channels
Channel positions                : Front: L C R, Surround: L R, LFE
Sampling rate                    : 48.0 KHz
Stream size                      : 278 MiB (20%)
Alignment                        : Split accross interleaves
Interleave, duration             : 40 ms (1.00 video frame)
Interleave, preload duration     : 500 ms

Veel plezier met deze film.